<mxfile host="app.diagrams.net" modified="2023-01-27T07:54:45.444Z" agent="5.0 (Windows NT 10.0; Win64; x64) AppleWebKit/537.36 (KHTML, like Gecko) Chrome/109.0.0.0 Safari/537.36 Edg/109.0.1518.69" etag="x6qBU7_ryrm9qC-aFSk5" version="20.8.13" type="github">
  <diagram name="Page-1" id="arUCAp-eetiClTOAVdEO">
    <mxGraphModel dx="880" dy="484" grid="1" gridSize="10" guides="1" tooltips="1" connect="1" arrows="1" fold="1" page="1" pageScale="1" pageWidth="850" pageHeight="1100" math="0" shadow="0">
      <root>
        <mxCell id="0" />
        <mxCell id="1" parent="0" />
        <mxCell id="GM2p6JNPULsYGsd1ew_U-2" value="" style="rounded=0;whiteSpace=wrap;html=1;" vertex="1" parent="1">
          <mxGeometry x="160" y="150" width="540" height="470" as="geometry" />
        </mxCell>
        <mxCell id="GM2p6JNPULsYGsd1ew_U-3" value="" style="endArrow=none;html=1;rounded=0;entryX=0;entryY=0.126;entryDx=0;entryDy=0;entryPerimeter=0;exitX=0.998;exitY=0.129;exitDx=0;exitDy=0;exitPerimeter=0;" edge="1" parent="1" source="GM2p6JNPULsYGsd1ew_U-2" target="GM2p6JNPULsYGsd1ew_U-2">
          <mxGeometry width="50" height="50" relative="1" as="geometry">
            <mxPoint x="405" y="270" as="sourcePoint" />
            <mxPoint x="455" y="220" as="targetPoint" />
          </mxGeometry>
        </mxCell>
        <mxCell id="GM2p6JNPULsYGsd1ew_U-4" value="Logout" style="rounded=1;whiteSpace=wrap;html=1;" vertex="1" parent="1">
          <mxGeometry x="630" y="170" width="60" height="20" as="geometry" />
        </mxCell>
        <mxCell id="GM2p6JNPULsYGsd1ew_U-7" value="" style="shape=actor;whiteSpace=wrap;html=1;" vertex="1" parent="1">
          <mxGeometry x="600" y="170" width="20" height="20" as="geometry" />
        </mxCell>
        <mxCell id="GM2p6JNPULsYGsd1ew_U-9" value="&lt;b&gt;&lt;font style=&quot;font-size: 17px;&quot;&gt;Title&lt;/font&gt;&lt;/b&gt;" style="text;html=1;strokeColor=none;fillColor=none;align=center;verticalAlign=middle;whiteSpace=wrap;rounded=0;" vertex="1" parent="1">
          <mxGeometry x="170" y="165" width="60" height="30" as="geometry" />
        </mxCell>
        <mxCell id="GM2p6JNPULsYGsd1ew_U-10" value="&lt;font style=&quot;font-size: 12px;&quot;&gt;Add new place&lt;/font&gt;" style="rounded=0;whiteSpace=wrap;html=1;fontSize=17;" vertex="1" parent="1">
          <mxGeometry x="370" y="165" width="90" height="30" as="geometry" />
        </mxCell>
        <mxCell id="GM2p6JNPULsYGsd1ew_U-11" value="" style="rounded=0;whiteSpace=wrap;html=1;fontSize=12;" vertex="1" parent="1">
          <mxGeometry x="180" y="230" width="190" height="150" as="geometry" />
        </mxCell>
        <mxCell id="GM2p6JNPULsYGsd1ew_U-12" value="" style="rounded=0;whiteSpace=wrap;html=1;fontSize=12;" vertex="1" parent="1">
          <mxGeometry x="490" y="230" width="190" height="150" as="geometry" />
        </mxCell>
        <mxCell id="GM2p6JNPULsYGsd1ew_U-13" value="" style="rounded=0;whiteSpace=wrap;html=1;fontSize=12;" vertex="1" parent="1">
          <mxGeometry x="180" y="400" width="190" height="150" as="geometry" />
        </mxCell>
        <mxCell id="GM2p6JNPULsYGsd1ew_U-14" value="" style="rounded=0;whiteSpace=wrap;html=1;fontSize=12;" vertex="1" parent="1">
          <mxGeometry x="490" y="400" width="190" height="150" as="geometry" />
        </mxCell>
        <mxCell id="GM2p6JNPULsYGsd1ew_U-16" value="" style="endArrow=none;html=1;rounded=0;fontSize=12;exitX=0;exitY=0.943;exitDx=0;exitDy=0;exitPerimeter=0;entryX=0.998;entryY=0.94;entryDx=0;entryDy=0;entryPerimeter=0;" edge="1" parent="1" source="GM2p6JNPULsYGsd1ew_U-2" target="GM2p6JNPULsYGsd1ew_U-2">
          <mxGeometry width="50" height="50" relative="1" as="geometry">
            <mxPoint x="400" y="500" as="sourcePoint" />
            <mxPoint x="450" y="450" as="targetPoint" />
          </mxGeometry>
        </mxCell>
        <mxCell id="GM2p6JNPULsYGsd1ew_U-17" value="Footer" style="text;html=1;strokeColor=none;fillColor=none;align=center;verticalAlign=middle;whiteSpace=wrap;rounded=0;fontSize=12;" vertex="1" parent="1">
          <mxGeometry x="395" y="590" width="60" height="30" as="geometry" />
        </mxCell>
        <mxCell id="GM2p6JNPULsYGsd1ew_U-18" value="" style="ellipse;whiteSpace=wrap;html=1;aspect=fixed;fontSize=12;" vertex="1" parent="1">
          <mxGeometry x="230" y="240" width="80" height="80" as="geometry" />
        </mxCell>
        <mxCell id="GM2p6JNPULsYGsd1ew_U-19" value="&lt;font style=&quot;font-size: 11px;&quot;&gt;User name&lt;/font&gt;" style="text;html=1;strokeColor=none;fillColor=none;align=center;verticalAlign=middle;whiteSpace=wrap;rounded=0;fontSize=12;" vertex="1" parent="1">
          <mxGeometry x="240" y="320" width="60" height="30" as="geometry" />
        </mxCell>
        <mxCell id="GM2p6JNPULsYGsd1ew_U-20" value="Explore" style="rounded=1;whiteSpace=wrap;html=1;fontSize=11;" vertex="1" parent="1">
          <mxGeometry x="240" y="350" width="60" height="20" as="geometry" />
        </mxCell>
        <mxCell id="GM2p6JNPULsYGsd1ew_U-21" value="Image" style="text;html=1;strokeColor=none;fillColor=none;align=center;verticalAlign=middle;whiteSpace=wrap;rounded=0;fontSize=11;" vertex="1" parent="1">
          <mxGeometry x="240" y="265" width="60" height="30" as="geometry" />
        </mxCell>
      </root>
    </mxGraphModel>
  </diagram>
</mxfile>
